<mxfile host="app.diagrams.net" agent="Mozilla/5.0 (Windows NT 10.0; Win64; x64; rv:131.0) Gecko/20100101 Firefox/131.0" version="24.8.3">
  <diagram name="Page-1" id="0783ab3e-0a74-02c8-0abd-f7b4e66b4bec">
    <mxGraphModel dx="2045" dy="645" grid="1" gridSize="10" guides="1" tooltips="1" connect="1" arrows="1" fold="1" page="1" pageScale="1" pageWidth="850" pageHeight="1100" background="none" math="0" shadow="0">
      <root>
        <mxCell id="0" />
        <mxCell id="1" parent="0" />
        <mxCell id="qV8y6y5Pa5aJ0l34UHgQ-83" style="edgeStyle=orthogonalEdgeStyle;rounded=0;orthogonalLoop=1;jettySize=auto;html=1;entryX=0.5;entryY=0;entryDx=0;entryDy=0;" edge="1" parent="1" source="qV8y6y5Pa5aJ0l34UHgQ-4" target="qV8y6y5Pa5aJ0l34UHgQ-81">
          <mxGeometry relative="1" as="geometry" />
        </mxCell>
        <mxCell id="qV8y6y5Pa5aJ0l34UHgQ-85" style="edgeStyle=orthogonalEdgeStyle;rounded=0;orthogonalLoop=1;jettySize=auto;html=1;entryX=0.5;entryY=0;entryDx=0;entryDy=0;" edge="1" parent="1" source="qV8y6y5Pa5aJ0l34UHgQ-4" target="qV8y6y5Pa5aJ0l34UHgQ-84">
          <mxGeometry relative="1" as="geometry" />
        </mxCell>
        <mxCell id="qV8y6y5Pa5aJ0l34UHgQ-4" value="" style="whiteSpace=wrap;html=1;rounded=0;shadow=0;comic=0;labelBackgroundColor=none;strokeWidth=1;fillColor=#000000;fontFamily=Verdana;fontSize=12;align=center;rotation=0;" vertex="1" parent="1">
          <mxGeometry x="501.38" y="680" width="97.25" height="10" as="geometry" />
        </mxCell>
        <mxCell id="qV8y6y5Pa5aJ0l34UHgQ-24" value="" style="ellipse;whiteSpace=wrap;html=1;rounded=0;shadow=0;comic=0;labelBackgroundColor=none;strokeWidth=1;fillColor=#000000;fontFamily=Verdana;fontSize=12;align=center;" vertex="1" parent="1">
          <mxGeometry x="380" width="40" height="40" as="geometry" />
        </mxCell>
        <mxCell id="qV8y6y5Pa5aJ0l34UHgQ-25" value="Логін" style="rounded=1;whiteSpace=wrap;html=1;shadow=0;comic=0;labelBackgroundColor=none;strokeWidth=1;fontFamily=Verdana;fontSize=12;align=center;arcSize=50;" vertex="1" parent="1">
          <mxGeometry x="262.5" y="220" width="100" height="30" as="geometry" />
        </mxCell>
        <mxCell id="qV8y6y5Pa5aJ0l34UHgQ-59" style="edgeStyle=orthogonalEdgeStyle;rounded=0;orthogonalLoop=1;jettySize=auto;html=1;entryX=1;entryY=0.5;entryDx=0;entryDy=0;endArrow=classic;endFill=1;" edge="1" parent="1" source="qV8y6y5Pa5aJ0l34UHgQ-30" target="qV8y6y5Pa5aJ0l34UHgQ-58">
          <mxGeometry relative="1" as="geometry" />
        </mxCell>
        <mxCell id="qV8y6y5Pa5aJ0l34UHgQ-62" style="edgeStyle=orthogonalEdgeStyle;rounded=0;orthogonalLoop=1;jettySize=auto;html=1;entryX=0.5;entryY=0;entryDx=0;entryDy=0;" edge="1" parent="1" source="qV8y6y5Pa5aJ0l34UHgQ-30" target="qV8y6y5Pa5aJ0l34UHgQ-57">
          <mxGeometry relative="1" as="geometry" />
        </mxCell>
        <mxCell id="qV8y6y5Pa5aJ0l34UHgQ-30" value="" style="rhombus;whiteSpace=wrap;html=1;fillColor=#000000;strokeColor=#FFFFFF;" vertex="1" parent="1">
          <mxGeometry x="290" y="280" width="45" height="40" as="geometry" />
        </mxCell>
        <mxCell id="qV8y6y5Pa5aJ0l34UHgQ-35" value="" style="edgeStyle=segmentEdgeStyle;endArrow=classic;html=1;curved=0;rounded=0;endSize=8;startSize=8;endFill=1;entryX=0.5;entryY=0;entryDx=0;entryDy=0;exitX=0.5;exitY=1;exitDx=0;exitDy=0;" edge="1" parent="1" source="qV8y6y5Pa5aJ0l34UHgQ-25" target="qV8y6y5Pa5aJ0l34UHgQ-30">
          <mxGeometry width="50" height="50" relative="1" as="geometry">
            <mxPoint x="420" y="160" as="sourcePoint" />
            <mxPoint x="420" y="220" as="targetPoint" />
          </mxGeometry>
        </mxCell>
        <mxCell id="qV8y6y5Pa5aJ0l34UHgQ-36" value="Новий користувач?" style="rounded=0;whiteSpace=wrap;html=1;fillColor=none;strokeColor=none;" vertex="1" parent="1">
          <mxGeometry x="257.5" y="320" width="110" height="20" as="geometry" />
        </mxCell>
        <mxCell id="qV8y6y5Pa5aJ0l34UHgQ-52" style="edgeStyle=orthogonalEdgeStyle;rounded=0;orthogonalLoop=1;jettySize=auto;html=1;entryX=0.5;entryY=0;entryDx=0;entryDy=0;" edge="1" parent="1" source="qV8y6y5Pa5aJ0l34UHgQ-38" target="qV8y6y5Pa5aJ0l34UHgQ-46">
          <mxGeometry relative="1" as="geometry" />
        </mxCell>
        <mxCell id="qV8y6y5Pa5aJ0l34UHgQ-38" value="Головна сторінка" style="rounded=1;whiteSpace=wrap;html=1;shadow=0;comic=0;labelBackgroundColor=none;strokeWidth=1;fontFamily=Verdana;fontSize=12;align=center;arcSize=50;" vertex="1" parent="1">
          <mxGeometry x="352.5" y="70" width="100" height="30" as="geometry" />
        </mxCell>
        <mxCell id="qV8y6y5Pa5aJ0l34UHgQ-41" style="edgeStyle=orthogonalEdgeStyle;rounded=0;orthogonalLoop=1;jettySize=auto;html=1;entryX=0.468;entryY=0.076;entryDx=0;entryDy=0;entryPerimeter=0;endArrow=classic;endFill=1;" edge="1" parent="1" source="qV8y6y5Pa5aJ0l34UHgQ-24" target="qV8y6y5Pa5aJ0l34UHgQ-38">
          <mxGeometry relative="1" as="geometry" />
        </mxCell>
        <mxCell id="qV8y6y5Pa5aJ0l34UHgQ-43" style="edgeStyle=orthogonalEdgeStyle;rounded=0;orthogonalLoop=1;jettySize=auto;html=1;entryX=1;entryY=0.5;entryDx=0;entryDy=0;endArrow=classic;endFill=1;" edge="1" parent="1" source="qV8y6y5Pa5aJ0l34UHgQ-42" target="qV8y6y5Pa5aJ0l34UHgQ-38">
          <mxGeometry relative="1" as="geometry" />
        </mxCell>
        <mxCell id="qV8y6y5Pa5aJ0l34UHgQ-42" value="Вийти" style="rounded=1;whiteSpace=wrap;html=1;shadow=0;comic=0;labelBackgroundColor=none;strokeWidth=1;fontFamily=Verdana;fontSize=12;align=center;arcSize=50;" vertex="1" parent="1">
          <mxGeometry x="452.5" y="220" width="100" height="30" as="geometry" />
        </mxCell>
        <mxCell id="qV8y6y5Pa5aJ0l34UHgQ-46" value="" style="rhombus;whiteSpace=wrap;html=1;fillColor=#000000;strokeColor=#FFFFFF;" vertex="1" parent="1">
          <mxGeometry x="380" y="130" width="45" height="40" as="geometry" />
        </mxCell>
        <mxCell id="qV8y6y5Pa5aJ0l34UHgQ-47" value="Користувач авторизован?" style="rounded=0;whiteSpace=wrap;html=1;fillColor=none;strokeColor=none;" vertex="1" parent="1">
          <mxGeometry x="345" y="170" width="110" height="30" as="geometry" />
        </mxCell>
        <mxCell id="qV8y6y5Pa5aJ0l34UHgQ-50" style="edgeStyle=orthogonalEdgeStyle;rounded=0;orthogonalLoop=1;jettySize=auto;html=1;entryX=0.291;entryY=0.048;entryDx=0;entryDy=0;entryPerimeter=0;" edge="1" parent="1" source="qV8y6y5Pa5aJ0l34UHgQ-46" target="qV8y6y5Pa5aJ0l34UHgQ-42">
          <mxGeometry relative="1" as="geometry" />
        </mxCell>
        <mxCell id="qV8y6y5Pa5aJ0l34UHgQ-51" style="edgeStyle=orthogonalEdgeStyle;rounded=0;orthogonalLoop=1;jettySize=auto;html=1;exitX=0;exitY=0.5;exitDx=0;exitDy=0;entryX=0.599;entryY=-0.048;entryDx=0;entryDy=0;entryPerimeter=0;" edge="1" parent="1" source="qV8y6y5Pa5aJ0l34UHgQ-46" target="qV8y6y5Pa5aJ0l34UHgQ-25">
          <mxGeometry relative="1" as="geometry" />
        </mxCell>
        <mxCell id="qV8y6y5Pa5aJ0l34UHgQ-53" value="Так" style="rounded=0;whiteSpace=wrap;html=1;fillColor=none;strokeColor=none;" vertex="1" parent="1">
          <mxGeometry x="227.5" y="270" width="35" height="20" as="geometry" />
        </mxCell>
        <mxCell id="qV8y6y5Pa5aJ0l34UHgQ-56" value="Ні" style="rounded=0;whiteSpace=wrap;html=1;fillColor=none;strokeColor=none;" vertex="1" parent="1">
          <mxGeometry x="330" y="120" width="35" height="20" as="geometry" />
        </mxCell>
        <mxCell id="qV8y6y5Pa5aJ0l34UHgQ-67" style="edgeStyle=orthogonalEdgeStyle;rounded=0;orthogonalLoop=1;jettySize=auto;html=1;entryX=0.5;entryY=0;entryDx=0;entryDy=0;" edge="1" parent="1" source="qV8y6y5Pa5aJ0l34UHgQ-57" target="qV8y6y5Pa5aJ0l34UHgQ-66">
          <mxGeometry relative="1" as="geometry" />
        </mxCell>
        <mxCell id="qV8y6y5Pa5aJ0l34UHgQ-116" style="edgeStyle=orthogonalEdgeStyle;rounded=0;orthogonalLoop=1;jettySize=auto;html=1;entryX=0.5;entryY=0;entryDx=0;entryDy=0;" edge="1" parent="1" source="qV8y6y5Pa5aJ0l34UHgQ-57" target="qV8y6y5Pa5aJ0l34UHgQ-121">
          <mxGeometry relative="1" as="geometry">
            <mxPoint x="-105" y="420" as="targetPoint" />
          </mxGeometry>
        </mxCell>
        <mxCell id="qV8y6y5Pa5aJ0l34UHgQ-57" value="" style="rhombus;whiteSpace=wrap;html=1;fillColor=#000000;strokeColor=#FFFFFF;" vertex="1" parent="1">
          <mxGeometry x="377.5" y="360" width="45" height="40" as="geometry" />
        </mxCell>
        <mxCell id="qV8y6y5Pa5aJ0l34UHgQ-65" style="edgeStyle=orthogonalEdgeStyle;rounded=0;orthogonalLoop=1;jettySize=auto;html=1;entryX=0;entryY=0.5;entryDx=0;entryDy=0;" edge="1" parent="1" source="qV8y6y5Pa5aJ0l34UHgQ-58" target="qV8y6y5Pa5aJ0l34UHgQ-25">
          <mxGeometry relative="1" as="geometry">
            <Array as="points">
              <mxPoint x="135" y="235" />
            </Array>
          </mxGeometry>
        </mxCell>
        <mxCell id="qV8y6y5Pa5aJ0l34UHgQ-58" value="Створення нового користувача" style="rounded=1;whiteSpace=wrap;html=1;shadow=0;comic=0;labelBackgroundColor=none;strokeWidth=1;fontFamily=Verdana;fontSize=12;align=center;arcSize=50;" vertex="1" parent="1">
          <mxGeometry x="70" y="277.5" width="130" height="45" as="geometry" />
        </mxCell>
        <mxCell id="qV8y6y5Pa5aJ0l34UHgQ-60" value="Так" style="rounded=0;whiteSpace=wrap;html=1;fillColor=none;strokeColor=none;" vertex="1" parent="1">
          <mxGeometry x="444" y="120" width="35" height="20" as="geometry" />
        </mxCell>
        <mxCell id="qV8y6y5Pa5aJ0l34UHgQ-61" value="Ні" style="rounded=0;whiteSpace=wrap;html=1;fillColor=none;strokeColor=none;" vertex="1" parent="1">
          <mxGeometry x="352.5" y="270" width="35" height="20" as="geometry" />
        </mxCell>
        <mxCell id="qV8y6y5Pa5aJ0l34UHgQ-63" value="Працівник?" style="rounded=0;whiteSpace=wrap;html=1;fillColor=none;strokeColor=none;" vertex="1" parent="1">
          <mxGeometry x="345" y="400" width="110" height="20" as="geometry" />
        </mxCell>
        <mxCell id="qV8y6y5Pa5aJ0l34UHgQ-74" style="edgeStyle=orthogonalEdgeStyle;rounded=0;orthogonalLoop=1;jettySize=auto;html=1;exitX=0;exitY=0.5;exitDx=0;exitDy=0;entryX=0.5;entryY=0;entryDx=0;entryDy=0;" edge="1" parent="1" source="qV8y6y5Pa5aJ0l34UHgQ-66">
          <mxGeometry relative="1" as="geometry">
            <mxPoint x="461.5" y="488" as="targetPoint" />
          </mxGeometry>
        </mxCell>
        <mxCell id="qV8y6y5Pa5aJ0l34UHgQ-126" style="edgeStyle=orthogonalEdgeStyle;rounded=0;orthogonalLoop=1;jettySize=auto;html=1;exitX=1;exitY=0.5;exitDx=0;exitDy=0;entryX=0.5;entryY=0;entryDx=0;entryDy=0;" edge="1" parent="1" source="qV8y6y5Pa5aJ0l34UHgQ-66" target="qV8y6y5Pa5aJ0l34UHgQ-125">
          <mxGeometry relative="1" as="geometry" />
        </mxCell>
        <mxCell id="qV8y6y5Pa5aJ0l34UHgQ-66" value="" style="rhombus;whiteSpace=wrap;html=1;fillColor=#000000;strokeColor=#FFFFFF;" vertex="1" parent="1">
          <mxGeometry x="490" y="400" width="45" height="40" as="geometry" />
        </mxCell>
        <mxCell id="qV8y6y5Pa5aJ0l34UHgQ-68" value="Детектив?" style="rounded=0;whiteSpace=wrap;html=1;fillColor=none;strokeColor=none;" vertex="1" parent="1">
          <mxGeometry x="457.5" y="440" width="110" height="20" as="geometry" />
        </mxCell>
        <mxCell id="qV8y6y5Pa5aJ0l34UHgQ-70" value="Так" style="rounded=0;whiteSpace=wrap;html=1;fillColor=none;strokeColor=none;" vertex="1" parent="1">
          <mxGeometry x="444" y="350" width="35" height="20" as="geometry" />
        </mxCell>
        <mxCell id="qV8y6y5Pa5aJ0l34UHgQ-71" value="Ні" style="rounded=0;whiteSpace=wrap;html=1;fillColor=none;strokeColor=none;" vertex="1" parent="1">
          <mxGeometry x="317.5" y="350" width="35" height="20" as="geometry" />
        </mxCell>
        <mxCell id="qV8y6y5Pa5aJ0l34UHgQ-72" value="Ні" style="rounded=0;whiteSpace=wrap;html=1;fillColor=none;strokeColor=none;" vertex="1" parent="1">
          <mxGeometry x="462.88" y="400" width="35" height="20" as="geometry" />
        </mxCell>
        <mxCell id="qV8y6y5Pa5aJ0l34UHgQ-73" value="Так" style="rounded=0;whiteSpace=wrap;html=1;fillColor=none;strokeColor=none;" vertex="1" parent="1">
          <mxGeometry x="552.5" y="400" width="35" height="20" as="geometry" />
        </mxCell>
        <mxCell id="qV8y6y5Pa5aJ0l34UHgQ-76" value="" style="endArrow=classic;html=1;rounded=0;" edge="1" parent="1">
          <mxGeometry width="50" height="50" relative="1" as="geometry">
            <mxPoint x="383.75" y="570" as="sourcePoint" />
            <mxPoint x="383.75" y="610" as="targetPoint" />
          </mxGeometry>
        </mxCell>
        <mxCell id="qV8y6y5Pa5aJ0l34UHgQ-77" value="" style="endArrow=classic;html=1;rounded=0;" edge="1" parent="1">
          <mxGeometry width="50" height="50" relative="1" as="geometry">
            <mxPoint x="541.25" y="570" as="sourcePoint" />
            <mxPoint x="541.25" y="610" as="targetPoint" />
          </mxGeometry>
        </mxCell>
        <mxCell id="qV8y6y5Pa5aJ0l34UHgQ-78" value="Прийняти запрос на створення нової справи" style="rounded=1;whiteSpace=wrap;html=1;shadow=0;comic=0;labelBackgroundColor=none;strokeWidth=1;fontFamily=Verdana;fontSize=12;align=center;arcSize=50;" vertex="1" parent="1">
          <mxGeometry x="463.75" y="610.5" width="172.5" height="39.5" as="geometry" />
        </mxCell>
        <mxCell id="qV8y6y5Pa5aJ0l34UHgQ-105" style="edgeStyle=orthogonalEdgeStyle;rounded=0;orthogonalLoop=1;jettySize=auto;html=1;" edge="1" parent="1" source="qV8y6y5Pa5aJ0l34UHgQ-80" target="qV8y6y5Pa5aJ0l34UHgQ-102">
          <mxGeometry relative="1" as="geometry">
            <Array as="points">
              <mxPoint x="306.25" y="633" />
              <mxPoint x="306.25" y="773" />
              <mxPoint x="307.25" y="773" />
            </Array>
          </mxGeometry>
        </mxCell>
        <mxCell id="qV8y6y5Pa5aJ0l34UHgQ-80" value="Змінити графік детектива" style="rounded=1;whiteSpace=wrap;html=1;shadow=0;comic=0;labelBackgroundColor=none;strokeWidth=1;fontFamily=Verdana;fontSize=12;align=center;arcSize=50;" vertex="1" parent="1">
          <mxGeometry x="327.75" y="610.5" width="122.5" height="45" as="geometry" />
        </mxCell>
        <mxCell id="qV8y6y5Pa5aJ0l34UHgQ-88" style="edgeStyle=orthogonalEdgeStyle;rounded=0;orthogonalLoop=1;jettySize=auto;html=1;entryX=0.5;entryY=0;entryDx=0;entryDy=0;" edge="1" parent="1" source="qV8y6y5Pa5aJ0l34UHgQ-81" target="qV8y6y5Pa5aJ0l34UHgQ-87">
          <mxGeometry relative="1" as="geometry" />
        </mxCell>
        <mxCell id="qV8y6y5Pa5aJ0l34UHgQ-81" value="Відправити детективу нову справу" style="rounded=1;whiteSpace=wrap;html=1;shadow=0;comic=0;labelBackgroundColor=none;strokeWidth=1;fontFamily=Verdana;fontSize=12;align=center;arcSize=50;" vertex="1" parent="1">
          <mxGeometry x="370.25" y="730" width="122.5" height="45" as="geometry" />
        </mxCell>
        <mxCell id="qV8y6y5Pa5aJ0l34UHgQ-82" style="edgeStyle=orthogonalEdgeStyle;rounded=0;orthogonalLoop=1;jettySize=auto;html=1;entryX=0.508;entryY=0.4;entryDx=0;entryDy=0;entryPerimeter=0;" edge="1" parent="1" source="qV8y6y5Pa5aJ0l34UHgQ-78" target="qV8y6y5Pa5aJ0l34UHgQ-4">
          <mxGeometry relative="1" as="geometry" />
        </mxCell>
        <mxCell id="qV8y6y5Pa5aJ0l34UHgQ-90" style="edgeStyle=orthogonalEdgeStyle;rounded=0;orthogonalLoop=1;jettySize=auto;html=1;entryX=0.5;entryY=0;entryDx=0;entryDy=0;" edge="1" parent="1" source="qV8y6y5Pa5aJ0l34UHgQ-84" target="qV8y6y5Pa5aJ0l34UHgQ-87">
          <mxGeometry relative="1" as="geometry" />
        </mxCell>
        <mxCell id="qV8y6y5Pa5aJ0l34UHgQ-84" value="Відправити користувачу повідомлення про підтверджену справу" style="rounded=1;whiteSpace=wrap;html=1;shadow=0;comic=0;labelBackgroundColor=none;strokeWidth=1;fontFamily=Verdana;fontSize=12;align=center;arcSize=50;" vertex="1" parent="1">
          <mxGeometry x="616.25" y="725" width="182.5" height="50" as="geometry" />
        </mxCell>
        <mxCell id="qV8y6y5Pa5aJ0l34UHgQ-97" style="edgeStyle=orthogonalEdgeStyle;rounded=0;orthogonalLoop=1;jettySize=auto;html=1;entryX=0.5;entryY=0;entryDx=0;entryDy=0;" edge="1" parent="1" source="qV8y6y5Pa5aJ0l34UHgQ-102" target="qV8y6y5Pa5aJ0l34UHgQ-93">
          <mxGeometry relative="1" as="geometry" />
        </mxCell>
        <mxCell id="qV8y6y5Pa5aJ0l34UHgQ-86" value="Збереження нової справи" style="rounded=1;whiteSpace=wrap;html=1;shadow=0;comic=0;labelBackgroundColor=none;strokeWidth=1;fontFamily=Verdana;fontSize=12;align=center;arcSize=50;" vertex="1" parent="1">
          <mxGeometry x="475.25" y="840" width="141" height="50" as="geometry" />
        </mxCell>
        <mxCell id="qV8y6y5Pa5aJ0l34UHgQ-91" style="edgeStyle=orthogonalEdgeStyle;rounded=0;orthogonalLoop=1;jettySize=auto;html=1;" edge="1" parent="1" source="qV8y6y5Pa5aJ0l34UHgQ-87" target="qV8y6y5Pa5aJ0l34UHgQ-86">
          <mxGeometry relative="1" as="geometry" />
        </mxCell>
        <mxCell id="qV8y6y5Pa5aJ0l34UHgQ-87" value="" style="whiteSpace=wrap;html=1;rounded=0;shadow=0;comic=0;labelBackgroundColor=none;strokeWidth=1;fillColor=#000000;fontFamily=Verdana;fontSize=12;align=center;rotation=0;" vertex="1" parent="1">
          <mxGeometry x="497.88" y="800" width="97.25" height="10" as="geometry" />
        </mxCell>
        <mxCell id="qV8y6y5Pa5aJ0l34UHgQ-98" style="edgeStyle=orthogonalEdgeStyle;rounded=0;orthogonalLoop=1;jettySize=auto;html=1;" edge="1" parent="1" source="qV8y6y5Pa5aJ0l34UHgQ-93">
          <mxGeometry relative="1" as="geometry">
            <mxPoint x="376.25" y="1010" as="targetPoint" />
          </mxGeometry>
        </mxCell>
        <mxCell id="qV8y6y5Pa5aJ0l34UHgQ-109" style="edgeStyle=orthogonalEdgeStyle;rounded=0;orthogonalLoop=1;jettySize=auto;html=1;exitX=0;exitY=0.5;exitDx=0;exitDy=0;entryX=0;entryY=0.5;entryDx=0;entryDy=0;" edge="1" parent="1" source="qV8y6y5Pa5aJ0l34UHgQ-93" target="qV8y6y5Pa5aJ0l34UHgQ-117">
          <mxGeometry relative="1" as="geometry">
            <mxPoint x="186.25" y="580" as="targetPoint" />
            <Array as="points">
              <mxPoint x="240" y="960" />
              <mxPoint x="240" y="513" />
              <mxPoint x="376" y="513" />
            </Array>
          </mxGeometry>
        </mxCell>
        <mxCell id="qV8y6y5Pa5aJ0l34UHgQ-93" value="" style="rhombus;whiteSpace=wrap;html=1;fillColor=#000000;strokeColor=#FFFFFF;" vertex="1" parent="1">
          <mxGeometry x="285.01" y="940" width="45" height="40" as="geometry" />
        </mxCell>
        <mxCell id="qV8y6y5Pa5aJ0l34UHgQ-94" value="Вийти?" style="rounded=0;whiteSpace=wrap;html=1;fillColor=none;strokeColor=none;" vertex="1" parent="1">
          <mxGeometry x="280" y="980" width="56.25" height="20" as="geometry" />
        </mxCell>
        <mxCell id="qV8y6y5Pa5aJ0l34UHgQ-100" value="" style="whiteSpace=wrap;html=1;rounded=0;shadow=0;comic=0;labelBackgroundColor=none;strokeWidth=1;fillColor=#000000;fontFamily=Verdana;fontSize=12;align=center;rotation=0;" vertex="1" parent="1">
          <mxGeometry x="376.25" y="570" width="170" height="10" as="geometry" />
        </mxCell>
        <mxCell id="qV8y6y5Pa5aJ0l34UHgQ-103" value="" style="edgeStyle=orthogonalEdgeStyle;rounded=0;orthogonalLoop=1;jettySize=auto;html=1;entryX=0.5;entryY=0;entryDx=0;entryDy=0;" edge="1" parent="1" source="qV8y6y5Pa5aJ0l34UHgQ-86" target="qV8y6y5Pa5aJ0l34UHgQ-102">
          <mxGeometry relative="1" as="geometry">
            <mxPoint x="475.25" y="865" as="sourcePoint" />
            <mxPoint x="307.25" y="940" as="targetPoint" />
          </mxGeometry>
        </mxCell>
        <mxCell id="qV8y6y5Pa5aJ0l34UHgQ-102" value="" style="whiteSpace=wrap;html=1;rounded=0;shadow=0;comic=0;labelBackgroundColor=none;strokeWidth=1;fillColor=#000000;fontFamily=Verdana;fontSize=12;align=center;rotation=0;" vertex="1" parent="1">
          <mxGeometry x="258.88" y="890" width="97.25" height="10" as="geometry" />
        </mxCell>
        <mxCell id="qV8y6y5Pa5aJ0l34UHgQ-106" value="Так" style="rounded=0;whiteSpace=wrap;html=1;fillColor=none;strokeColor=none;" vertex="1" parent="1">
          <mxGeometry x="327.75" y="930" width="35" height="20" as="geometry" />
        </mxCell>
        <mxCell id="qV8y6y5Pa5aJ0l34UHgQ-107" value="Ні" style="rounded=0;whiteSpace=wrap;html=1;fillColor=none;strokeColor=none;" vertex="1" parent="1">
          <mxGeometry x="245" y="930" width="35" height="20" as="geometry" />
        </mxCell>
        <mxCell id="qV8y6y5Pa5aJ0l34UHgQ-111" value="" style="ellipse;html=1;shape=endState;fillColor=#000000;strokeColor=#000000;" vertex="1" parent="1">
          <mxGeometry x="361.25" y="1010" width="30" height="30" as="geometry" />
        </mxCell>
        <mxCell id="qV8y6y5Pa5aJ0l34UHgQ-113" value="Початок діяльності" style="rounded=0;whiteSpace=wrap;html=1;fillColor=none;strokeColor=none;" vertex="1" parent="1">
          <mxGeometry x="430" y="5" width="70" height="30" as="geometry" />
        </mxCell>
        <mxCell id="qV8y6y5Pa5aJ0l34UHgQ-114" value="Завершення діяльності" style="rounded=0;whiteSpace=wrap;html=1;fillColor=none;strokeColor=none;" vertex="1" parent="1">
          <mxGeometry x="393.75" y="1010" width="82.5" height="30" as="geometry" />
        </mxCell>
        <mxCell id="qV8y6y5Pa5aJ0l34UHgQ-118" style="edgeStyle=orthogonalEdgeStyle;rounded=0;orthogonalLoop=1;jettySize=auto;html=1;entryX=0.5;entryY=0;entryDx=0;entryDy=0;" edge="1" parent="1" source="qV8y6y5Pa5aJ0l34UHgQ-117" target="qV8y6y5Pa5aJ0l34UHgQ-100">
          <mxGeometry relative="1" as="geometry" />
        </mxCell>
        <mxCell id="qV8y6y5Pa5aJ0l34UHgQ-117" value="Перехід на сторінку менеджера" style="rounded=1;whiteSpace=wrap;html=1;shadow=0;comic=0;labelBackgroundColor=none;strokeWidth=1;fontFamily=Verdana;fontSize=12;align=center;arcSize=50;" vertex="1" parent="1">
          <mxGeometry x="400.25" y="490" width="122.5" height="45" as="geometry" />
        </mxCell>
        <mxCell id="qV8y6y5Pa5aJ0l34UHgQ-147" style="edgeStyle=orthogonalEdgeStyle;rounded=0;orthogonalLoop=1;jettySize=auto;html=1;entryX=0.5;entryY=0;entryDx=0;entryDy=0;" edge="1" parent="1" source="qV8y6y5Pa5aJ0l34UHgQ-121" target="qV8y6y5Pa5aJ0l34UHgQ-131">
          <mxGeometry relative="1" as="geometry" />
        </mxCell>
        <mxCell id="qV8y6y5Pa5aJ0l34UHgQ-121" value="Перехід на сторінку клієнта" style="rounded=1;whiteSpace=wrap;html=1;shadow=0;comic=0;labelBackgroundColor=none;strokeWidth=1;fontFamily=Verdana;fontSize=12;align=center;arcSize=50;" vertex="1" parent="1">
          <mxGeometry x="-51.25" y="400" width="122.5" height="45" as="geometry" />
        </mxCell>
        <mxCell id="qV8y6y5Pa5aJ0l34UHgQ-123" value="" style="whiteSpace=wrap;html=1;rounded=0;shadow=0;comic=0;labelBackgroundColor=none;strokeWidth=1;fillColor=#000000;fontFamily=Verdana;fontSize=12;align=center;rotation=0;" vertex="1" parent="1">
          <mxGeometry x="940" y="525" width="170" height="10" as="geometry" />
        </mxCell>
        <mxCell id="qV8y6y5Pa5aJ0l34UHgQ-124" style="edgeStyle=orthogonalEdgeStyle;rounded=0;orthogonalLoop=1;jettySize=auto;html=1;entryX=0.5;entryY=0;entryDx=0;entryDy=0;" edge="1" parent="1" source="qV8y6y5Pa5aJ0l34UHgQ-125" target="qV8y6y5Pa5aJ0l34UHgQ-123">
          <mxGeometry relative="1" as="geometry" />
        </mxCell>
        <mxCell id="qV8y6y5Pa5aJ0l34UHgQ-125" value="Перехід на сторінку детектива" style="rounded=1;whiteSpace=wrap;html=1;shadow=0;comic=0;labelBackgroundColor=none;strokeWidth=1;fontFamily=Verdana;fontSize=12;align=center;arcSize=50;" vertex="1" parent="1">
          <mxGeometry x="963.75" y="440" width="122.5" height="45" as="geometry" />
        </mxCell>
        <mxCell id="qV8y6y5Pa5aJ0l34UHgQ-153" style="edgeStyle=orthogonalEdgeStyle;rounded=0;orthogonalLoop=1;jettySize=auto;html=1;" edge="1" parent="1" source="qV8y6y5Pa5aJ0l34UHgQ-129">
          <mxGeometry relative="1" as="geometry">
            <mxPoint x="10" y="655" as="targetPoint" />
            <Array as="points">
              <mxPoint x="154" y="625" />
              <mxPoint x="11" y="625" />
              <mxPoint x="11" y="655" />
            </Array>
          </mxGeometry>
        </mxCell>
        <mxCell id="qV8y6y5Pa5aJ0l34UHgQ-129" value="Створити нову справу" style="rounded=1;whiteSpace=wrap;html=1;shadow=0;comic=0;labelBackgroundColor=none;strokeWidth=1;fontFamily=Verdana;fontSize=12;align=center;arcSize=50;" vertex="1" parent="1">
          <mxGeometry x="90" y="552.25" width="128.5" height="39.5" as="geometry" />
        </mxCell>
        <mxCell id="qV8y6y5Pa5aJ0l34UHgQ-150" style="edgeStyle=orthogonalEdgeStyle;rounded=0;orthogonalLoop=1;jettySize=auto;html=1;exitX=0.5;exitY=1;exitDx=0;exitDy=0;entryX=0.5;entryY=0;entryDx=0;entryDy=0;" edge="1" parent="1" source="qV8y6y5Pa5aJ0l34UHgQ-130" target="qV8y6y5Pa5aJ0l34UHgQ-135">
          <mxGeometry relative="1" as="geometry" />
        </mxCell>
        <mxCell id="qV8y6y5Pa5aJ0l34UHgQ-130" value="Залишити відгук про агентство" style="rounded=1;whiteSpace=wrap;html=1;shadow=0;comic=0;labelBackgroundColor=none;strokeWidth=1;fontFamily=Verdana;fontSize=12;align=center;arcSize=50;" vertex="1" parent="1">
          <mxGeometry x="-51.25" y="550.5" width="122.5" height="45" as="geometry" />
        </mxCell>
        <mxCell id="qV8y6y5Pa5aJ0l34UHgQ-139" style="edgeStyle=orthogonalEdgeStyle;rounded=0;orthogonalLoop=1;jettySize=auto;html=1;" edge="1" parent="1" source="qV8y6y5Pa5aJ0l34UHgQ-131" target="qV8y6y5Pa5aJ0l34UHgQ-130">
          <mxGeometry relative="1" as="geometry" />
        </mxCell>
        <mxCell id="qV8y6y5Pa5aJ0l34UHgQ-142" style="edgeStyle=orthogonalEdgeStyle;rounded=0;orthogonalLoop=1;jettySize=auto;html=1;entryX=0.5;entryY=0;entryDx=0;entryDy=0;" edge="1" parent="1" source="qV8y6y5Pa5aJ0l34UHgQ-131" target="qV8y6y5Pa5aJ0l34UHgQ-129">
          <mxGeometry relative="1" as="geometry">
            <Array as="points">
              <mxPoint x="10" y="525" />
              <mxPoint x="154" y="525" />
            </Array>
          </mxGeometry>
        </mxCell>
        <mxCell id="qV8y6y5Pa5aJ0l34UHgQ-131" value="" style="whiteSpace=wrap;html=1;rounded=0;shadow=0;comic=0;labelBackgroundColor=none;strokeWidth=1;fillColor=#000000;fontFamily=Verdana;fontSize=12;align=center;rotation=0;" vertex="1" parent="1">
          <mxGeometry x="-55" y="492.5" width="130" height="10" as="geometry" />
        </mxCell>
        <mxCell id="qV8y6y5Pa5aJ0l34UHgQ-152" style="edgeStyle=orthogonalEdgeStyle;rounded=0;orthogonalLoop=1;jettySize=auto;html=1;entryX=0.5;entryY=0;entryDx=0;entryDy=0;" edge="1" parent="1" source="qV8y6y5Pa5aJ0l34UHgQ-134" target="qV8y6y5Pa5aJ0l34UHgQ-135">
          <mxGeometry relative="1" as="geometry">
            <Array as="points">
              <mxPoint x="-146" y="625" />
              <mxPoint x="10" y="625" />
            </Array>
          </mxGeometry>
        </mxCell>
        <mxCell id="qV8y6y5Pa5aJ0l34UHgQ-134" value="Підтвердити зміни в справі" style="rounded=1;whiteSpace=wrap;html=1;shadow=0;comic=0;labelBackgroundColor=none;strokeWidth=1;fontFamily=Verdana;fontSize=12;align=center;arcSize=50;" vertex="1" parent="1">
          <mxGeometry x="-210" y="555" width="128.5" height="39.5" as="geometry" />
        </mxCell>
        <mxCell id="qV8y6y5Pa5aJ0l34UHgQ-165" style="edgeStyle=orthogonalEdgeStyle;rounded=0;orthogonalLoop=1;jettySize=auto;html=1;entryX=0.5;entryY=0;entryDx=0;entryDy=0;" edge="1" parent="1" source="qV8y6y5Pa5aJ0l34UHgQ-135" target="qV8y6y5Pa5aJ0l34UHgQ-162">
          <mxGeometry relative="1" as="geometry" />
        </mxCell>
        <mxCell id="qV8y6y5Pa5aJ0l34UHgQ-135" value="" style="whiteSpace=wrap;html=1;rounded=0;shadow=0;comic=0;labelBackgroundColor=none;strokeWidth=1;fillColor=#000000;fontFamily=Verdana;fontSize=12;align=center;rotation=0;" vertex="1" parent="1">
          <mxGeometry x="-55" y="655" width="130" height="10" as="geometry" />
        </mxCell>
        <mxCell id="qV8y6y5Pa5aJ0l34UHgQ-141" style="edgeStyle=orthogonalEdgeStyle;rounded=0;orthogonalLoop=1;jettySize=auto;html=1;entryX=0.447;entryY=0.042;entryDx=0;entryDy=0;entryPerimeter=0;" edge="1" parent="1" target="qV8y6y5Pa5aJ0l34UHgQ-134">
          <mxGeometry relative="1" as="geometry">
            <mxPoint x="10" y="526" as="sourcePoint" />
          </mxGeometry>
        </mxCell>
        <mxCell id="qV8y6y5Pa5aJ0l34UHgQ-166" style="edgeStyle=orthogonalEdgeStyle;rounded=0;orthogonalLoop=1;jettySize=auto;html=1;entryX=0;entryY=0.5;entryDx=0;entryDy=0;" edge="1" parent="1" source="qV8y6y5Pa5aJ0l34UHgQ-162" target="qV8y6y5Pa5aJ0l34UHgQ-111">
          <mxGeometry relative="1" as="geometry" />
        </mxCell>
        <mxCell id="qV8y6y5Pa5aJ0l34UHgQ-167" style="edgeStyle=orthogonalEdgeStyle;rounded=0;orthogonalLoop=1;jettySize=auto;html=1;entryX=0;entryY=0.5;entryDx=0;entryDy=0;" edge="1" parent="1" source="qV8y6y5Pa5aJ0l34UHgQ-162" target="qV8y6y5Pa5aJ0l34UHgQ-121">
          <mxGeometry relative="1" as="geometry">
            <Array as="points">
              <mxPoint x="-220" y="740" />
              <mxPoint x="-220" y="423" />
            </Array>
          </mxGeometry>
        </mxCell>
        <mxCell id="qV8y6y5Pa5aJ0l34UHgQ-162" value="" style="rhombus;whiteSpace=wrap;html=1;fillColor=#000000;strokeColor=#FFFFFF;" vertex="1" parent="1">
          <mxGeometry x="-13.5" y="720" width="45" height="40" as="geometry" />
        </mxCell>
        <mxCell id="qV8y6y5Pa5aJ0l34UHgQ-163" value="Так" style="rounded=0;whiteSpace=wrap;html=1;fillColor=none;strokeColor=none;" vertex="1" parent="1">
          <mxGeometry x="31.5" y="710" width="35" height="20" as="geometry" />
        </mxCell>
        <mxCell id="qV8y6y5Pa5aJ0l34UHgQ-164" value="Ні" style="rounded=0;whiteSpace=wrap;html=1;fillColor=none;strokeColor=none;" vertex="1" parent="1">
          <mxGeometry x="-51.25" y="710" width="35" height="20" as="geometry" />
        </mxCell>
        <mxCell id="qV8y6y5Pa5aJ0l34UHgQ-168" value="Вийти?" style="rounded=0;whiteSpace=wrap;html=1;fillColor=none;strokeColor=none;" vertex="1" parent="1">
          <mxGeometry x="-19.129999999999995" y="765" width="56.25" height="20" as="geometry" />
        </mxCell>
        <mxCell id="qV8y6y5Pa5aJ0l34UHgQ-169" style="edgeStyle=orthogonalEdgeStyle;rounded=0;orthogonalLoop=1;jettySize=auto;html=1;entryX=0.5;entryY=0;entryDx=0;entryDy=0;exitX=0.5;exitY=1;exitDx=0;exitDy=0;" edge="1" parent="1" source="qV8y6y5Pa5aJ0l34UHgQ-171" target="qV8y6y5Pa5aJ0l34UHgQ-178">
          <mxGeometry relative="1" as="geometry" />
        </mxCell>
        <mxCell id="qV8y6y5Pa5aJ0l34UHgQ-198" style="edgeStyle=orthogonalEdgeStyle;rounded=0;orthogonalLoop=1;jettySize=auto;html=1;exitX=0.5;exitY=1;exitDx=0;exitDy=0;entryX=0.5;entryY=0;entryDx=0;entryDy=0;" edge="1" parent="1" source="qV8y6y5Pa5aJ0l34UHgQ-171" target="qV8y6y5Pa5aJ0l34UHgQ-188">
          <mxGeometry relative="1" as="geometry" />
        </mxCell>
        <mxCell id="qV8y6y5Pa5aJ0l34UHgQ-171" value="" style="whiteSpace=wrap;html=1;rounded=0;shadow=0;comic=0;labelBackgroundColor=none;strokeWidth=1;fillColor=#000000;fontFamily=Verdana;fontSize=12;align=center;rotation=0;" vertex="1" parent="1">
          <mxGeometry x="1065.14" y="730" width="97.25" height="10" as="geometry" />
        </mxCell>
        <mxCell id="qV8y6y5Pa5aJ0l34UHgQ-172" value="" style="endArrow=classic;html=1;rounded=0;" edge="1" parent="1">
          <mxGeometry width="50" height="50" relative="1" as="geometry">
            <mxPoint x="947.5" y="535" as="sourcePoint" />
            <mxPoint x="947.5" y="575" as="targetPoint" />
          </mxGeometry>
        </mxCell>
        <mxCell id="qV8y6y5Pa5aJ0l34UHgQ-173" value="" style="endArrow=classic;html=1;rounded=0;" edge="1" parent="1">
          <mxGeometry width="50" height="50" relative="1" as="geometry">
            <mxPoint x="1105" y="535" as="sourcePoint" />
            <mxPoint x="1105" y="575" as="targetPoint" />
          </mxGeometry>
        </mxCell>
        <mxCell id="qV8y6y5Pa5aJ0l34UHgQ-190" style="edgeStyle=orthogonalEdgeStyle;rounded=0;orthogonalLoop=1;jettySize=auto;html=1;entryX=0.5;entryY=0;entryDx=0;entryDy=0;" edge="1" parent="1" source="qV8y6y5Pa5aJ0l34UHgQ-174" target="qV8y6y5Pa5aJ0l34UHgQ-189">
          <mxGeometry relative="1" as="geometry" />
        </mxCell>
        <mxCell id="qV8y6y5Pa5aJ0l34UHgQ-174" value="Змінити інформацію про справу" style="rounded=1;whiteSpace=wrap;html=1;shadow=0;comic=0;labelBackgroundColor=none;strokeWidth=1;fontFamily=Verdana;fontSize=12;align=center;arcSize=50;" vertex="1" parent="1">
          <mxGeometry x="1042.5" y="575.5" width="142.5" height="39.5" as="geometry" />
        </mxCell>
        <mxCell id="qV8y6y5Pa5aJ0l34UHgQ-175" style="edgeStyle=orthogonalEdgeStyle;rounded=0;orthogonalLoop=1;jettySize=auto;html=1;entryX=0.5;entryY=0;entryDx=0;entryDy=0;" edge="1" parent="1" source="qV8y6y5Pa5aJ0l34UHgQ-176" target="qV8y6y5Pa5aJ0l34UHgQ-213">
          <mxGeometry relative="1" as="geometry">
            <mxPoint x="870.75" y="855" as="targetPoint" />
            <Array as="points">
              <mxPoint x="870" y="598" />
              <mxPoint x="870" y="738" />
              <mxPoint x="871" y="738" />
              <mxPoint x="871" y="830" />
              <mxPoint x="753" y="830" />
            </Array>
          </mxGeometry>
        </mxCell>
        <mxCell id="qV8y6y5Pa5aJ0l34UHgQ-176" value="Змінити графік" style="rounded=1;whiteSpace=wrap;html=1;shadow=0;comic=0;labelBackgroundColor=none;strokeWidth=1;fontFamily=Verdana;fontSize=12;align=center;arcSize=50;" vertex="1" parent="1">
          <mxGeometry x="891.5" y="575.5" width="122.5" height="45" as="geometry" />
        </mxCell>
        <mxCell id="qV8y6y5Pa5aJ0l34UHgQ-208" style="edgeStyle=orthogonalEdgeStyle;rounded=0;orthogonalLoop=1;jettySize=auto;html=1;entryX=0.5;entryY=0;entryDx=0;entryDy=0;exitX=0.5;exitY=1;exitDx=0;exitDy=0;" edge="1" parent="1" source="qV8y6y5Pa5aJ0l34UHgQ-178" target="qV8y6y5Pa5aJ0l34UHgQ-184">
          <mxGeometry relative="1" as="geometry">
            <mxPoint x="930" y="870" as="sourcePoint" />
            <Array as="points">
              <mxPoint x="981" y="880" />
              <mxPoint x="930" y="880" />
              <mxPoint x="930" y="1140" />
              <mxPoint x="1016" y="1140" />
            </Array>
          </mxGeometry>
        </mxCell>
        <mxCell id="qV8y6y5Pa5aJ0l34UHgQ-178" value="Видалити файл зі справи" style="rounded=1;whiteSpace=wrap;html=1;shadow=0;comic=0;labelBackgroundColor=none;strokeWidth=1;fontFamily=Verdana;fontSize=12;align=center;arcSize=50;" vertex="1" parent="1">
          <mxGeometry x="920" y="795" width="122.5" height="45" as="geometry" />
        </mxCell>
        <mxCell id="qV8y6y5Pa5aJ0l34UHgQ-224" style="edgeStyle=orthogonalEdgeStyle;rounded=0;orthogonalLoop=1;jettySize=auto;html=1;entryX=0.5;entryY=0;entryDx=0;entryDy=0;" edge="1" parent="1" source="qV8y6y5Pa5aJ0l34UHgQ-182" target="qV8y6y5Pa5aJ0l34UHgQ-219">
          <mxGeometry relative="1" as="geometry" />
        </mxCell>
        <mxCell id="qV8y6y5Pa5aJ0l34UHgQ-182" value="Підтвердження внесення змін у справу" style="rounded=1;whiteSpace=wrap;html=1;shadow=0;comic=0;labelBackgroundColor=none;strokeWidth=1;fontFamily=Verdana;fontSize=12;align=center;arcSize=50;" vertex="1" parent="1">
          <mxGeometry x="945.25" y="1220" width="141" height="50" as="geometry" />
        </mxCell>
        <mxCell id="qV8y6y5Pa5aJ0l34UHgQ-183" style="edgeStyle=orthogonalEdgeStyle;rounded=0;orthogonalLoop=1;jettySize=auto;html=1;" edge="1" parent="1" source="qV8y6y5Pa5aJ0l34UHgQ-184" target="qV8y6y5Pa5aJ0l34UHgQ-182">
          <mxGeometry relative="1" as="geometry" />
        </mxCell>
        <mxCell id="qV8y6y5Pa5aJ0l34UHgQ-184" value="" style="whiteSpace=wrap;html=1;rounded=0;shadow=0;comic=0;labelBackgroundColor=none;strokeWidth=1;fillColor=#000000;fontFamily=Verdana;fontSize=12;align=center;rotation=0;" vertex="1" parent="1">
          <mxGeometry x="967.1200000000001" y="1170" width="97.25" height="10" as="geometry" />
        </mxCell>
        <mxCell id="qV8y6y5Pa5aJ0l34UHgQ-186" value="" style="edgeStyle=orthogonalEdgeStyle;rounded=0;orthogonalLoop=1;jettySize=auto;html=1;entryX=0.5;entryY=0;entryDx=0;entryDy=0;exitX=0;exitY=0.5;exitDx=0;exitDy=0;" edge="1" parent="1" source="qV8y6y5Pa5aJ0l34UHgQ-219" target="qV8y6y5Pa5aJ0l34UHgQ-213">
          <mxGeometry relative="1" as="geometry">
            <mxPoint x="1039" y="830" as="sourcePoint" />
            <mxPoint x="871.75" y="855" as="targetPoint" />
            <Array as="points">
              <mxPoint x="860" y="1340" />
              <mxPoint x="860" y="870" />
              <mxPoint x="753" y="870" />
            </Array>
          </mxGeometry>
        </mxCell>
        <mxCell id="qV8y6y5Pa5aJ0l34UHgQ-188" value="Додати файл до справи" style="rounded=1;whiteSpace=wrap;html=1;shadow=0;comic=0;labelBackgroundColor=none;strokeWidth=1;fontFamily=Verdana;fontSize=12;align=center;arcSize=50;" vertex="1" parent="1">
          <mxGeometry x="1051.76" y="790" width="122.5" height="45" as="geometry" />
        </mxCell>
        <mxCell id="qV8y6y5Pa5aJ0l34UHgQ-191" style="edgeStyle=orthogonalEdgeStyle;rounded=0;orthogonalLoop=1;jettySize=auto;html=1;entryX=0.5;entryY=0;entryDx=0;entryDy=0;" edge="1" parent="1" source="qV8y6y5Pa5aJ0l34UHgQ-189" target="qV8y6y5Pa5aJ0l34UHgQ-171">
          <mxGeometry relative="1" as="geometry" />
        </mxCell>
        <mxCell id="qV8y6y5Pa5aJ0l34UHgQ-189" value="Додати опис внесених змін" style="rounded=1;whiteSpace=wrap;html=1;shadow=0;comic=0;labelBackgroundColor=none;strokeWidth=1;fontFamily=Verdana;fontSize=12;align=center;arcSize=50;" vertex="1" parent="1">
          <mxGeometry x="1042.51" y="650" width="142.5" height="39.5" as="geometry" />
        </mxCell>
        <mxCell id="qV8y6y5Pa5aJ0l34UHgQ-193" style="edgeStyle=orthogonalEdgeStyle;rounded=0;orthogonalLoop=1;jettySize=auto;html=1;entryX=0.5;entryY=0;entryDx=0;entryDy=0;exitX=0.5;exitY=1;exitDx=0;exitDy=0;" edge="1" parent="1" source="qV8y6y5Pa5aJ0l34UHgQ-194" target="qV8y6y5Pa5aJ0l34UHgQ-195">
          <mxGeometry relative="1" as="geometry" />
        </mxCell>
        <mxCell id="qV8y6y5Pa5aJ0l34UHgQ-200" style="edgeStyle=orthogonalEdgeStyle;rounded=0;orthogonalLoop=1;jettySize=auto;html=1;entryX=0.5;entryY=0;entryDx=0;entryDy=0;" edge="1" parent="1" source="qV8y6y5Pa5aJ0l34UHgQ-194" target="qV8y6y5Pa5aJ0l34UHgQ-196">
          <mxGeometry relative="1" as="geometry" />
        </mxCell>
        <mxCell id="qV8y6y5Pa5aJ0l34UHgQ-194" value="" style="whiteSpace=wrap;html=1;rounded=0;shadow=0;comic=0;labelBackgroundColor=none;strokeWidth=1;fillColor=#000000;fontFamily=Verdana;fontSize=12;align=center;rotation=0;" vertex="1" parent="1">
          <mxGeometry x="1068.75" y="880" width="97.25" height="10" as="geometry" />
        </mxCell>
        <mxCell id="qV8y6y5Pa5aJ0l34UHgQ-204" style="edgeStyle=orthogonalEdgeStyle;rounded=0;orthogonalLoop=1;jettySize=auto;html=1;entryX=0.5;entryY=0;entryDx=0;entryDy=0;" edge="1" parent="1" source="qV8y6y5Pa5aJ0l34UHgQ-195" target="qV8y6y5Pa5aJ0l34UHgQ-201">
          <mxGeometry relative="1" as="geometry" />
        </mxCell>
        <mxCell id="qV8y6y5Pa5aJ0l34UHgQ-195" value="Додати документ" style="rounded=1;whiteSpace=wrap;html=1;shadow=0;comic=0;labelBackgroundColor=none;strokeWidth=1;fontFamily=Verdana;fontSize=12;align=center;arcSize=50;" vertex="1" parent="1">
          <mxGeometry x="980" y="950" width="122.5" height="45" as="geometry" />
        </mxCell>
        <mxCell id="qV8y6y5Pa5aJ0l34UHgQ-203" style="edgeStyle=orthogonalEdgeStyle;rounded=0;orthogonalLoop=1;jettySize=auto;html=1;entryX=0.5;entryY=0;entryDx=0;entryDy=0;" edge="1" parent="1" source="qV8y6y5Pa5aJ0l34UHgQ-196" target="qV8y6y5Pa5aJ0l34UHgQ-201">
          <mxGeometry relative="1" as="geometry">
            <Array as="points">
              <mxPoint x="1201" y="1015" />
              <mxPoint x="1120" y="1015" />
              <mxPoint x="1120" y="1020" />
              <mxPoint x="1118" y="1020" />
            </Array>
          </mxGeometry>
        </mxCell>
        <mxCell id="qV8y6y5Pa5aJ0l34UHgQ-196" value="Додати опис документа" style="rounded=1;whiteSpace=wrap;html=1;shadow=0;comic=0;labelBackgroundColor=none;strokeWidth=1;fontFamily=Verdana;fontSize=12;align=center;arcSize=50;" vertex="1" parent="1">
          <mxGeometry x="1140" y="950" width="122.5" height="45" as="geometry" />
        </mxCell>
        <mxCell id="qV8y6y5Pa5aJ0l34UHgQ-197" style="edgeStyle=orthogonalEdgeStyle;rounded=0;orthogonalLoop=1;jettySize=auto;html=1;entryX=0.452;entryY=0;entryDx=0;entryDy=0;entryPerimeter=0;" edge="1" parent="1" source="qV8y6y5Pa5aJ0l34UHgQ-188" target="qV8y6y5Pa5aJ0l34UHgQ-194">
          <mxGeometry relative="1" as="geometry" />
        </mxCell>
        <mxCell id="qV8y6y5Pa5aJ0l34UHgQ-207" style="edgeStyle=orthogonalEdgeStyle;rounded=0;orthogonalLoop=1;jettySize=auto;html=1;entryX=0.5;entryY=0;entryDx=0;entryDy=0;" edge="1" parent="1" source="qV8y6y5Pa5aJ0l34UHgQ-199" target="qV8y6y5Pa5aJ0l34UHgQ-184">
          <mxGeometry relative="1" as="geometry" />
        </mxCell>
        <mxCell id="qV8y6y5Pa5aJ0l34UHgQ-199" value="Підтвердити додавання файла" style="rounded=1;whiteSpace=wrap;html=1;shadow=0;comic=0;labelBackgroundColor=none;strokeWidth=1;fontFamily=Verdana;fontSize=12;align=center;arcSize=50;" vertex="1" parent="1">
          <mxGeometry x="1043.77" y="1070" width="148.99" height="40" as="geometry" />
        </mxCell>
        <mxCell id="qV8y6y5Pa5aJ0l34UHgQ-205" style="edgeStyle=orthogonalEdgeStyle;rounded=0;orthogonalLoop=1;jettySize=auto;html=1;entryX=0.5;entryY=0;entryDx=0;entryDy=0;" edge="1" parent="1" source="qV8y6y5Pa5aJ0l34UHgQ-201" target="qV8y6y5Pa5aJ0l34UHgQ-199">
          <mxGeometry relative="1" as="geometry" />
        </mxCell>
        <mxCell id="qV8y6y5Pa5aJ0l34UHgQ-201" value="" style="whiteSpace=wrap;html=1;rounded=0;shadow=0;comic=0;labelBackgroundColor=none;strokeWidth=1;fillColor=#000000;fontFamily=Verdana;fontSize=12;align=center;rotation=0;" vertex="1" parent="1">
          <mxGeometry x="1069.64" y="1030" width="97.25" height="10" as="geometry" />
        </mxCell>
        <mxCell id="qV8y6y5Pa5aJ0l34UHgQ-218" style="edgeStyle=orthogonalEdgeStyle;rounded=0;orthogonalLoop=1;jettySize=auto;html=1;entryX=0;entryY=0.5;entryDx=0;entryDy=0;" edge="1" parent="1" source="qV8y6y5Pa5aJ0l34UHgQ-213" target="qV8y6y5Pa5aJ0l34UHgQ-125">
          <mxGeometry relative="1" as="geometry">
            <Array as="points">
              <mxPoint x="820" y="950" />
              <mxPoint x="820" y="463" />
            </Array>
          </mxGeometry>
        </mxCell>
        <mxCell id="qV8y6y5Pa5aJ0l34UHgQ-213" value="" style="rhombus;whiteSpace=wrap;html=1;fillColor=#000000;strokeColor=#FFFFFF;" vertex="1" parent="1">
          <mxGeometry x="730.01" y="930" width="45" height="40" as="geometry" />
        </mxCell>
        <mxCell id="qV8y6y5Pa5aJ0l34UHgQ-214" value="Вийти?" style="rounded=0;whiteSpace=wrap;html=1;fillColor=none;strokeColor=none;" vertex="1" parent="1">
          <mxGeometry x="725" y="970" width="56.25" height="20" as="geometry" />
        </mxCell>
        <mxCell id="qV8y6y5Pa5aJ0l34UHgQ-215" value="Так" style="rounded=0;whiteSpace=wrap;html=1;fillColor=none;strokeColor=none;" vertex="1" parent="1">
          <mxGeometry x="690" y="920" width="35" height="20" as="geometry" />
        </mxCell>
        <mxCell id="qV8y6y5Pa5aJ0l34UHgQ-216" value="Ні" style="rounded=0;whiteSpace=wrap;html=1;fillColor=none;strokeColor=none;" vertex="1" parent="1">
          <mxGeometry x="775.01" y="920" width="35" height="20" as="geometry" />
        </mxCell>
        <mxCell id="qV8y6y5Pa5aJ0l34UHgQ-217" style="edgeStyle=orthogonalEdgeStyle;rounded=0;orthogonalLoop=1;jettySize=auto;html=1;" edge="1" parent="1" source="qV8y6y5Pa5aJ0l34UHgQ-213">
          <mxGeometry relative="1" as="geometry">
            <mxPoint x="378" y="1010" as="targetPoint" />
          </mxGeometry>
        </mxCell>
        <mxCell id="qV8y6y5Pa5aJ0l34UHgQ-223" style="edgeStyle=orthogonalEdgeStyle;rounded=0;orthogonalLoop=1;jettySize=auto;html=1;entryX=1;entryY=0.5;entryDx=0;entryDy=0;" edge="1" parent="1" source="qV8y6y5Pa5aJ0l34UHgQ-219" target="qV8y6y5Pa5aJ0l34UHgQ-174">
          <mxGeometry relative="1" as="geometry">
            <Array as="points">
              <mxPoint x="1280" y="1340" />
              <mxPoint x="1280" y="595" />
            </Array>
          </mxGeometry>
        </mxCell>
        <mxCell id="qV8y6y5Pa5aJ0l34UHgQ-219" value="" style="rhombus;whiteSpace=wrap;html=1;fillColor=#000000;strokeColor=#FFFFFF;" vertex="1" parent="1">
          <mxGeometry x="993.25" y="1320" width="45" height="40" as="geometry" />
        </mxCell>
        <mxCell id="qV8y6y5Pa5aJ0l34UHgQ-220" value="Змінити іншу справу?" style="rounded=0;whiteSpace=wrap;html=1;fillColor=none;strokeColor=none;" vertex="1" parent="1">
          <mxGeometry x="973.38" y="1360" width="95.37" height="40" as="geometry" />
        </mxCell>
        <mxCell id="qV8y6y5Pa5aJ0l34UHgQ-221" value="Так" style="rounded=0;whiteSpace=wrap;html=1;fillColor=none;strokeColor=none;" vertex="1" parent="1">
          <mxGeometry x="1034.6399999999999" y="1310" width="35" height="20" as="geometry" />
        </mxCell>
        <mxCell id="qV8y6y5Pa5aJ0l34UHgQ-222" value="Ні" style="rounded=0;whiteSpace=wrap;html=1;fillColor=none;strokeColor=none;" vertex="1" parent="1">
          <mxGeometry x="964.45" y="1310" width="35" height="20" as="geometry" />
        </mxCell>
      </root>
    </mxGraphModel>
  </diagram>
</mxfile>
